name Walk8.mot
datacolumns 19
datarows 20
range 1.06000000 1.15500000
endheader

                time	   L_ground_force_vx	   L_ground_force_vy	   L_ground_force_vz	   L_ground_force_px	   L_ground_force_py	   L_ground_force_pz	   R_ground_force_vx	   R_ground_force_vy	   R_ground_force_vz	   R_ground_force_px	   R_ground_force_py	   R_ground_force_pz	   L_ground_torque_x	   L_ground_torque_y	   L_ground_torque_z	   R_ground_torque_x	   R_ground_torque_y	   R_ground_torque_z	
          1.06000000	         -5.18221993	         22.63143579	          0.78465863	         -0.25384702	          0.00000000	         -0.03514048	          0.00000000	          0.00000000	         -0.00000000	          0.00000000	          0.00000000	          0.00000000	          0.00000000	          0.01447814	          0.00000000	          0.00000000	          0.00000000	          0.00000000	
          1.06500000	        -14.53069451	        109.90252197	         -0.38962484	         -0.43819145	          0.00000000	         -0.05897778	          0.00000000	          0.00000000	          0.00000000	          0.00000000	          0.00000000	          0.00000000	          0.00000000	          0.13454508	          0.00000000	          0.00000000	         -0.00000000	          0.00000000	
          1.07000000	        -19.31005354	        216.17246860	         -6.07258430	         -0.46379948	          0.00000000	         -0.06027870	          0.00000000	          0.00000000	          0.00000000	         -0.00000000	          0.00000000	         -0.00000000	          0.00000000	          0.26494471	          0.00000000	          0.00000000	         -0.00000000	          0.00000000	
          1.07500000	        -17.49490441	        255.10509164	        -14.09087130	         -0.44983634	          0.00000000	         -0.05746972	         -0.00000000	         -0.00000000	          0.00000000	         -0.00000000	          0.00000000	         -0.00000000	          0.00000000	          0.26394970	          0.00000000	          0.00000000	         -0.00000000	          0.00000000	
          1.08000000	        -15.71946688	        237.78815256	        -18.91599179	         -0.44169282	          0.00000000	         -0.05647651	         -0.00000000	         -0.00000000	         -0.00000000	         -0.00000000	          0.00000000	         -0.00000000	          0.00000000	          0.24973859	          0.00000000	          0.00000000	          0.00000000	          0.00000000	
          1.08500000	        -16.91180990	        228.72692886	        -19.84382992	         -0.43913228	          0.00000000	         -0.05689529	         -0.00000000	         -0.00000000	         -0.00000000	          0.00000000	          0.00000000	          0.00000000	          0.00000000	          0.33223913	          0.00000000	          0.00000000	          0.00000000	          0.00000000	
          1.09000000	        -21.43679395	        243.59429494	        -18.94329088	         -0.43630048	          0.00000000	         -0.05846999	          0.00000000	          0.00000000	          0.00000000	          0.00000000	          0.00000000	          0.00000000	          0.00000000	          0.57527569	          0.00000000	          0.00000000	          0.00000000	          0.00000000	
          1.09500000	        -29.10732622	        267.33217606	        -15.51393987	         -0.43184476	          0.00000000	         -0.06086724	          0.00000000	          0.00000000	          0.00000000	          0.00000000	          0.00000000	          0.00000000	          0.00000000	          0.85028349	          0.00000000	          0.00000000	         -0.00000000	          0.00000000	
          1.10000000	        -38.12221233	        288.61880201	         -8.16818077	         -0.42715860	          0.00000000	         -0.06346397	          0.00000000	         -0.00000000	          0.00000000	         -0.00000000	          0.00000000	         -0.00000000	          0.00000000	          1.00812300	          0.00000000	          0.00000000	         -0.00000000	          0.00000000	
          1.10500000	        -46.52057136	        306.47036101	         -0.07111184	         -0.42318262	          0.00000000	         -0.06552695	         -0.00000000	         -0.00000000	         -0.00000000	         -0.00000000	          0.00000000	         -0.00000000	          0.00000000	          1.06094137	          0.00000000	          0.00000000	          0.00000000	          0.00000000	
          1.11000000	        -52.72817329	        324.08794410	          5.01427912	         -0.41980696	          0.00000000	         -0.06689055	         -0.00000000	         -0.00000000	         -0.00000000	          0.00000000	          0.00000000	          0.00000000	          0.00000000	          1.03739393	          0.00000000	          0.00000000	          0.00000000	          0.00000000	
          1.11500000	        -56.16810155	        342.93070966	          7.69835222	         -0.41691650	          0.00000000	         -0.06771995	          0.00000000	          0.00000000	         -0.00000000	          0.00000000	          0.00000000	          0.00000000	          0.00000000	          0.97182502	          0.00000000	          0.00000000	          0.00000000	          0.00000000	
          1.12000000	        -58.20127652	        364.42891491	         10.23919674	         -0.41429631	          0.00000000	         -0.06821533	          0.00000000	          0.00000000	          0.00000000	          0.00000000	          0.00000000	          0.00000000	          0.00000000	          0.86020545	          0.00000000	          0.00000000	         -0.00000000	          0.00000000	
          1.12500000	        -61.27209528	        389.55936104	         13.58826355	         -0.41158489	          0.00000000	         -0.06864605	          0.00000000	          0.00000000	          0.00000000	         -0.00000000	          0.00000000	         -0.00000000	          0.00000000	          0.72092363	          0.00000000	          0.00000000	         -0.00000000	          0.00000000	
          1.13000000	        -67.03111761	        417.69263890	         16.85681483	         -0.40870642	          0.00000000	         -0.06886825	         -0.00000000	         -0.00000000	          0.00000000	         -0.00000000	          0.00000000	         -0.00000000	          0.00000000	          0.64697595	          0.00000000	          0.00000000	         -0.00000000	          0.00000000	
          1.13500000	        -74.67626743	        446.26647938	         18.24318797	         -0.40591000	          0.00000000	         -0.06889221	         -0.00000000	         -0.00000000	         -0.00000000	         -0.00000000	          0.00000000	         -0.00000000	          0.00000000	          0.76916402	          0.00000000	          0.00000000	          0.00000000	          0.00000000	
          1.14000000	        -81.34869973	        472.11980999	         17.39273865	         -0.40375269	          0.00000000	         -0.06867195	         -0.00000000	         -0.00000000	         -0.00000000	          0.00000000	          0.00000000	          0.00000000	          0.00000000	          1.07042649	          0.00000000	          0.00000000	          0.00000000	          0.00000000	
          1.14500000	        -84.81236371	        494.95978544	         15.99883808	         -0.40215070	          0.00000000	         -0.06853995	          0.00000000	          0.00000000	          0.00000000	          0.00000000	          0.00000000	          0.00000000	          0.00000000	          1.36123878	          0.00000000	          0.00000000	          0.00000000	          0.00000000	
          1.15000000	        -85.48185641	        517.81973260	         15.64199987	         -0.40065950	          0.00000000	         -0.06847195	          0.00000000	          0.00000000	          0.00000000	          0.00000000	          0.00000000	          0.00000000	          0.00000000	          1.52692746	          0.00000000	          0.00000000	         -0.00000000	          0.00000000	
          1.15500000	        -85.46321567	        542.11332621	         16.48967761	         -0.39956097	          0.00000000	         -0.06823292	          0.00000000	          0.00000000	          0.00000000	         -0.00000000	          0.00000000	         -0.00000000	          0.00000000	          1.60800470	          0.00000000	          0.00000000	         -0.00000000	          0.00000000	
